<svg width="32" height="32" viewBox="0 0 32 32" fill="none" xmlns="http://www.w3.org/2000/svg">
  <!-- Background Circle -->
  <circle cx="16" cy="16" r="15" fill="url(#gradient)"/>
  
  <!-- Map Pin -->
  <path d="M16 6C12.13 6 9 9.13 9 13C9 18.25 16 26 16 26C16 26 23 18.25 23 13C23 9.13 19.87 6 16 6ZM16 15.5C14.62 15.5 13.5 14.38 13.5 13C13.5 11.62 14.62 10.5 16 10.5C17.38 10.5 18.5 11.62 18.5 13C18.5 14.38 17.38 15.5 16 15.5Z" fill="white"/>
  
  <!-- Hobby Icons (small) -->
  <circle cx="8" cy="24" r="2" fill="white" opacity="0.7"/>
  <rect x="22" y="22" width="4" height="4" rx="1" fill="white" opacity="0.7"/>
  
  <!-- Gradient Definition -->
  <defs>
    <linearGradient id="gradient" x1="0" y1="0" x2="32" y2="32">
      <stop offset="0%" stop-color="#f093fb"/>
      <stop offset="100%" stop-color="#f5576c"/>
    </linearGradient>
  </defs>
</svg>